<svg width="26" height="18" viewBox="0 0 26 18" fill="none" xmlns="http://www.w3.org/2000/svg">
<g clip-path="url(#clip0_279_301)">
<path d="M13.2107 12.379L9.1756 9.63554C9.51299 11.2048 11.096 12.3955 13.0043 12.3955C13.0766 12.3966 13.1416 12.3825 13.2107 12.379ZM13.0035 14.087C9.77294 14.087 7.15195 11.8148 7.15195 9.0474C7.15195 8.80831 7.19625 8.57971 7.19665 8.34939L3.30297 5.6489C2.58088 6.48532 1.95103 7.41119 1.44146 8.41665C1.36385 8.57196 1.26388 8.83962 1.26388 9.01571C1.26388 9.19098 1.3274 9.45945 1.40485 9.61546C3.60932 13.9613 7.97153 16.8738 12.9656 16.8738C14.8129 16.8738 16.5728 16.4692 18.171 15.7419L15.1437 13.6852C14.4704 13.9497 13.739 14.087 13.0035 14.087ZM25.6329 16.5206L21.4272 13.6641C22.7019 12.5385 23.7747 11.1724 24.5646 9.64575C24.6421 9.48974 24.7056 9.22067 24.7056 9.04599C24.7056 8.87075 24.6421 8.60225 24.5646 8.44624C22.3602 4.10039 17.998 1.18789 13.0039 1.18789C10.4564 1.18789 8.07885 1.96056 6.06333 3.28756L1.57718 0.180173C1.39839 0.0591304 1.18627 0 0.976592 0C0.687268 0 0.399935 0.111217 0.208217 0.323615C-0.124465 0.691286 -0.0506306 1.22272 0.373522 1.51045L24.3931 17.8197C24.8198 18.1086 25.4322 18.0428 25.7621 17.6763C26.1328 17.3411 26.0555 16.8094 25.6329 16.5206ZM18.8184 9.01571C18.8184 9.89086 18.5459 10.7054 18.089 11.42L16.5225 10.3554C16.7354 9.94404 16.8677 9.49537 16.8677 9.0143C16.8677 7.17946 15.1204 5.63341 13.0032 5.63341C12.9097 5.63444 12.7767 5.64903 12.6594 5.66038C12.8734 5.98699 12.9669 6.3603 12.9669 6.76178C12.9669 7.11994 12.8628 7.45451 12.6897 7.75351L9.0862 5.27912C10.1208 4.45573 11.4886 3.94331 13.0043 3.94331C16.234 3.94437 18.8184 6.21943 18.8184 9.01571Z" fill="white"/>
</g>
<defs>
<clipPath id="clip0_279_301">
<rect width="26" height="18" fill="white"/>
</clipPath>
</defs>
</svg>
