<svg width="26" height="18" viewBox="0 0 26 18" fill="none" xmlns="http://www.w3.org/2000/svg">
<path d="M24.855 8.39167C22.5954 3.98292 18.1221 1 13 1C7.87791 1 3.40332 3.985 1.14498 8.39208C1.04966 8.58063 1 8.78894 1 9.00021C1 9.21148 1.04966 9.41979 1.14498 9.60833C3.40457 14.0171 7.87791 17 13 17C18.1221 17 22.5967 14.015 24.855 9.60792C24.9503 9.41937 25 9.21106 25 8.99979C25 8.78852 24.9503 8.58021 24.855 8.39167ZM13 15C11.8133 15 10.6533 14.6481 9.66657 13.9888C8.67988 13.3295 7.91084 12.3925 7.45671 11.2961C7.00259 10.1997 6.88377 8.99334 7.11528 7.82946C7.34679 6.66557 7.91823 5.59647 8.75735 4.75736C9.59647 3.91824 10.6656 3.3468 11.8295 3.11529C12.9933 2.88378 14.1997 3.0026 15.2961 3.45672C16.3925 3.91085 17.3295 4.67988 17.9888 5.66658C18.6481 6.65327 19 7.81331 19 9C19.0004 9.78804 18.8455 10.5684 18.5441 11.2966C18.2427 12.0247 17.8007 12.6863 17.2435 13.2435C16.6863 13.8007 16.0247 14.2427 15.2966 14.5441C14.5684 14.8455 13.788 15.0004 13 15ZM13 5C12.643 5.00499 12.2882 5.05811 11.9454 5.15792C12.228 5.54195 12.3636 6.01454 12.3276 6.48998C12.2917 6.96542 12.0865 7.41223 11.7494 7.74938C11.4122 8.08652 10.9654 8.29168 10.49 8.32765C10.0145 8.36362 9.54194 8.22801 9.15791 7.94542C8.93923 8.75108 8.9787 9.60503 9.27078 10.3871C9.56285 11.1691 10.0928 11.8399 10.7861 12.305C11.4793 12.7701 12.301 13.006 13.1354 12.9797C13.9698 12.9533 14.7749 12.666 15.4375 12.158C16.1 11.6501 16.5866 10.9473 16.8287 10.1483C17.0708 9.3494 17.0563 8.49466 16.7872 7.70441C16.5181 6.91415 16.008 6.22818 15.3286 5.74305C14.6492 5.25791 13.8348 4.99804 13 5Z" fill="white"/>
</svg>
