<svg width="92" height="28" viewBox="0 0 92 28" fill="none" xmlns="http://www.w3.org/2000/svg">
<g clip-path="url(#clip0_70_315)">
<path d="M11.5254 2.4502H4.49767C4.04717 2.4502 3.59668 2.8002 3.50658 3.2377L0.713507 20.7377C0.623408 21.0877 0.893705 21.3502 1.2541 21.3502H4.58776C5.03826 21.3502 5.48875 21.0002 5.57885 20.5627L6.29965 15.8377C6.38974 15.4002 6.75014 15.0502 7.29074 15.0502H9.54321C14.1383 15.0502 16.8412 12.8627 17.562 8.57519C17.8323 6.7377 17.562 5.2502 16.661 4.2002C15.6699 3.0627 13.868 2.4502 11.5254 2.4502ZM12.3363 8.8377C11.9759 11.2877 9.9937 11.2877 8.19172 11.2877H7.11054L7.83133 6.73769C7.83133 6.47519 8.10163 6.30019 8.37192 6.30019H8.82242C10.0838 6.30019 11.2551 6.30019 11.8858 7.0002C12.3363 7.35019 12.5165 7.9627 12.3363 8.8377Z" fill="#003087"/>
<path d="M32.4285 8.75H29.0948C28.8245 8.75 28.5542 8.925 28.5542 9.1875L28.3741 10.0625L28.1038 9.7125C27.383 8.6625 25.7612 8.3125 24.1394 8.3125C20.4453 8.3125 17.2919 11.025 16.6612 14.875C16.3008 16.8 16.7513 18.6375 17.9226 19.8625C18.9137 21 20.4453 21.525 22.1572 21.525C25.1305 21.525 26.8424 19.6875 26.8424 19.6875L26.6622 20.5625C26.5721 20.9125 26.8424 21.2625 27.2028 21.2625H30.2661C30.7166 21.2625 31.1671 20.9125 31.2572 20.475L33.0592 9.275C33.1493 9.1 32.7889 8.75 32.4285 8.75ZM27.8335 15.05C27.4731 16.8875 26.0315 18.2 24.0493 18.2C23.0582 18.2 22.3374 17.9375 21.7968 17.325C21.2562 16.7125 21.076 15.925 21.2562 15.05C21.5265 13.2125 23.1483 11.9 25.0404 11.9C26.0315 11.9 26.7523 12.25 27.2929 12.775C27.7434 13.3875 27.9236 14.175 27.8335 15.05Z" fill="#003087"/>
<path d="M50.3582 8.75H47.0245C46.6641 8.75 46.3938 8.925 46.2136 9.1875L41.5285 15.8375L39.5463 9.45C39.4562 9.0125 39.0057 8.75 38.6453 8.75H35.3117C34.9513 8.75 34.5909 9.1 34.7711 9.5375L38.4651 20.125L34.9513 24.85C34.681 25.2 34.9513 25.725 35.4018 25.725H38.7354C39.0958 25.725 39.3661 25.55 39.5463 25.2875L50.8087 9.5375C51.079 9.275 50.8087 8.75 50.3582 8.75Z" fill="#003087"/>
<path d="M61.5305 2.4502H54.5028C54.0523 2.4502 53.6018 2.8002 53.5117 3.2377L50.7186 20.6502C50.6285 21.0002 50.8988 21.2627 51.2592 21.2627H54.8632C55.2236 21.2627 55.4939 21.0002 55.4939 20.7377L56.3048 15.7502C56.3949 15.3127 56.7553 14.9627 57.2959 14.9627H59.5483C64.1434 14.9627 66.8464 12.7752 67.5671 8.48769C67.8374 6.6502 67.5671 5.1627 66.6662 4.1127C65.585 3.0627 63.8731 2.4502 61.5305 2.4502ZM62.3414 8.8377C61.981 11.2877 59.9988 11.2877 58.1969 11.2877H57.1157L57.8365 6.73769C57.8365 6.47519 58.1068 6.30019 58.377 6.30019H58.8275C60.0889 6.30019 61.2602 6.3002 61.8909 7.0002C62.3414 7.35019 62.4315 7.9627 62.3414 8.8377Z" fill="#009CDE"/>
<path d="M82.4334 8.75H79.0997C78.8294 8.75 78.5591 8.925 78.5591 9.1875L78.3789 10.0625L78.1086 9.7125C77.3878 8.6625 75.7661 8.3125 74.1443 8.3125C70.4502 8.3125 67.2968 11.025 66.6661 14.875C66.3057 16.8 66.7562 18.6375 67.9274 19.8625C68.9185 21 70.4502 21.525 72.1621 21.525C75.1354 21.525 76.8473 19.6875 76.8473 19.6875L76.6671 20.5625C76.577 20.9125 76.8473 21.2625 77.2076 21.2625H80.271C80.7215 21.2625 81.172 20.9125 81.2621 20.475L83.0641 9.275C83.0641 9.1 82.7938 8.75 82.4334 8.75ZM77.7482 15.05C77.3878 16.8875 75.9463 18.2 73.9641 18.2C72.973 18.2 72.2522 17.9375 71.7116 17.325C71.171 16.7125 70.9908 15.925 71.171 15.05C71.4413 13.2125 73.0631 11.9 74.9552 11.9C75.9463 11.9 76.6671 12.25 77.2076 12.775C77.7482 13.3875 77.9284 14.175 77.7482 15.05Z" fill="#009CDE"/>
<path d="M86.3977 2.8877L83.5145 20.6502C83.4244 21.0002 83.6947 21.2627 84.0551 21.2627H86.9383C87.3888 21.2627 87.8393 20.9127 87.9294 20.4752L90.8126 3.0627C90.9026 2.7127 90.6324 2.4502 90.272 2.4502H87.0284C86.668 2.4502 86.4878 2.6252 86.3977 2.8877Z" fill="#009CDE"/>
</g>
<defs>
<clipPath id="clip0_70_315">
<rect width="91" height="28" fill="white" transform="translate(0.5)"/>
</clipPath>
</defs>
</svg>
